<svg width="58" height="62" viewBox="0 0 58 62" fill="none" xmlns="http://www.w3.org/2000/svg">
<path d="M54.0156 28.7127H4.03096C2.27657 28.7127 0.849411 27.2951 0.849411 25.5524V16.0842C0.849411 14.3415 2.27657 12.9233 4.03096 12.9233H54.0149C55.7687 12.9233 57.1953 14.3415 57.1953 16.0842V25.553C57.1959 27.2951 55.7693 28.7127 54.0156 28.7127ZM4.03096 15.3455C3.62755 15.3455 3.28691 15.684 3.28691 16.0842V25.553C3.28691 25.9599 3.62085 26.2912 4.03096 26.2912H54.0149C54.4244 26.2912 54.7578 25.9599 54.7578 25.553V16.0842C54.7578 15.6834 54.4171 15.3455 54.0149 15.3455H4.03096Z" fill="white"/>
<path d="M47.0447 61.1488H10.999C7.62182 61.1488 4.87415 58.4191 4.87415 55.0626V27.5016C4.87415 26.8331 5.42015 26.2905 6.0929 26.2905C6.76565 26.2905 7.31165 26.8331 7.31165 27.5016V55.0626C7.31165 57.0833 8.9661 58.7267 10.999 58.7267H47.0447C49.077 58.7267 50.7308 57.0833 50.7308 55.0626V27.5016C50.7308 26.8331 51.2768 26.2905 51.9496 26.2905C52.6223 26.2905 53.1683 26.8331 53.1683 27.5016V55.0626C53.1683 58.4191 50.4213 61.1488 47.0447 61.1488Z" fill="white"/>
<path d="M29.0225 61.1488C28.3498 61.1488 27.8038 60.6069 27.8038 59.9378V27.5016C27.8038 26.8331 28.3498 26.2905 29.0225 26.2905C29.6953 26.2905 30.2413 26.8331 30.2413 27.5016V59.9372C30.2413 60.6069 29.6959 61.1488 29.0225 61.1488Z" fill="white"/>
<path d="M13.8113 15.3414C9.99661 13.2874 8.57311 8.53272 10.6383 4.74145C12.7022 0.952006 17.4864 -0.463133 21.303 1.58721C27.117 4.71662 30.2565 13.4472 30.3869 13.8172L28.0877 14.6208C28.0585 14.5384 25.1256 6.39941 20.1433 3.71749C17.5078 2.30175 14.2062 3.27908 12.7821 5.89439C11.3567 8.51213 12.339 11.7941 14.9734 13.2117L13.8113 15.3414Z" fill="white"/>
<path d="M44.2313 15.3413L43.071 13.2111C44.3477 12.5238 45.2782 11.3848 45.6926 10.0035C46.1063 8.62171 45.9534 7.16237 45.2617 5.89498C44.5719 4.62638 43.4263 3.70233 42.0363 3.29117C40.6457 2.88001 39.1783 3.0314 37.9023 3.71747C32.9201 6.39878 29.9871 14.5378 29.9579 14.6202L27.6587 13.8166C27.7891 13.4466 30.928 4.716 36.7421 1.58719C38.5897 0.592902 40.7182 0.373698 42.7316 0.969546C44.7468 1.56479 46.4061 2.90484 47.4061 4.74143C48.4073 6.57742 48.6285 8.69135 48.0289 10.6939C47.4287 12.6958 46.0801 14.3458 44.2313 15.3413Z" fill="white"/>
<path d="M51.9496 44.9314H6.0929C5.42015 44.9314 4.87415 44.3889 4.87415 43.7204C4.87415 43.0518 5.42015 42.5093 6.0929 42.5093H51.9496C52.6223 42.5093 53.1683 43.0518 53.1683 43.7204C53.1683 44.3889 52.6229 44.9314 51.9496 44.9314Z" fill="white"/>
</svg>
