<svg width="58" height="62" fill="none" xmlns="http://www.w3.org/2000/svg"><path d="M54.016 28.713H4.03c-1.754 0-3.182-1.418-3.182-3.16v-9.469c0-1.742 1.428-3.16 3.182-3.16h49.984c1.754 0 3.18 1.418 3.18 3.16v9.469c0 1.742-1.426 3.16-3.18 3.16ZM4.03 15.345a.751.751 0 0 0-.744.74v9.468c0 .407.334.738.744.738h49.984c.41 0 .743-.331.743-.738v-9.469a.75.75 0 0 0-.743-.739H4.03Z" fill="#fff"/><path d="M47.045 61.149H10.999c-3.377 0-6.125-2.73-6.125-6.086V27.502c0-.669.546-1.211 1.219-1.211s1.219.542 1.219 1.21v27.562c0 2.02 1.654 3.664 3.687 3.664h36.046c2.032 0 3.686-1.644 3.686-3.664V27.502c0-.669.546-1.211 1.219-1.211.672 0 1.218.542 1.218 1.21v27.562c0 3.356-2.747 6.086-6.123 6.086Z" fill="#fff"/><path d="M29.023 61.149a1.215 1.215 0 0 1-1.22-1.211V27.502c0-.669.547-1.211 1.22-1.211.672 0 1.218.542 1.218 1.21v32.436c0 .67-.545 1.212-1.218 1.212ZM13.811 15.341c-3.814-2.054-5.238-6.808-3.173-10.6C12.702.952 17.486-.463 21.303 1.587c5.814 3.13 8.953 11.86 9.084 12.23l-2.3.804c-.029-.083-2.961-8.222-7.944-10.904-2.635-1.415-5.937-.438-7.36 2.177-1.426 2.618-.444 5.9 2.19 7.318l-1.162 2.13Z" fill="#fff"/><path d="m44.231 15.341-1.16-2.13a5.376 5.376 0 0 0 2.622-3.207 5.327 5.327 0 0 0-.431-4.109 5.382 5.382 0 0 0-3.226-2.604 5.426 5.426 0 0 0-4.134.426C32.92 6.4 29.987 14.537 29.958 14.62l-2.3-.803c.131-.37 3.27-9.101 9.084-12.23a7.859 7.859 0 0 1 5.99-.617 7.8 7.8 0 0 1 4.674 3.771 7.72 7.72 0 0 1 .623 5.953 7.788 7.788 0 0 1-3.798 4.647ZM51.95 44.931H6.093a1.215 1.215 0 0 1-1.219-1.21c0-.67.546-1.212 1.219-1.212H51.95c.672 0 1.218.543 1.218 1.211 0 .669-.545 1.211-1.218 1.211Z" fill="#fff"/></svg>