<?xml version="1.0" encoding="UTF-8"?><!DOCTYPE svg PUBLIC "-//W3C//DTD SVG 1.1//EN" "http://www.w3.org/Graphics/SVG/1.1/DTD/svg11.dtd"><svg xmlns="http://www.w3.org/2000/svg" xmlns:xlink="http://www.w3.org/1999/xlink"><defs><clipPath id="a"><path fill="#fff" d="M0 0h27v34H0z"/></clipPath><clipPath id="a"><path fill="#fff" d="M0 0h128v24H0z"/></clipPath><clipPath id="a"><path fill="#fff" transform="translate(0 .82)" d="M0 0h101v17.985H0z"/></clipPath><clipPath id="a"><path fill="#fff" d="M0 0h33.32v37.61H0z"/></clipPath></defs><symbol id="academy-logo"><g clip-path="url(#a)"><path d="M13.643.016 13.5 0 0 1.407v24.606L13.5 34 27 26.013V1.407L13.643.016Zm11.591 25L13.5 31.956 1.766 25.015V14.93l11.685 6.916.02 1.253-8.017-4.743-.011 1.225 8.046 4.809.02 1.286-8.045-4.758-.01 1.226L13.5 26.95l8.124-4.833V16.91l3.62-2.15-.01 10.256Zm0-11.564-3.22 1.88-1.482.875-7.065-4.187-.011 1.225 6.04 3.573-.053.031-.13.076-.86.492-4.986-2.948-.011 1.225 3.936 2.328-.933.61-.021.012-2.971-1.742-.011 1.225 1.947 1.135-1.988 1.186-11.618-6.872 11.638-6.958 11.8 6.834Zm0-1.225L13.44 5.31 1.766 12.22V2.99L13.5 1.764 25.234 2.99v9.237Z"/></g></symbol><symbol id="footer-logo"><g clip-path="url(#a)" fill="#111"><path d="M1.603 22.051A9.498 9.498 0 0 1 0 16.308V7.795a9.63 9.63 0 0 1 1.502-5.846C2.604.615 4.307 0 6.811 0s4.106.615 5.108 1.744a7.487 7.487 0 0 1 1.502 5.025v2.052H8.513V6.46a5.157 5.157 0 0 0-.3-2.05 1.463 1.463 0 0 0-.579-.63 1.415 1.415 0 0 0-.823-.191c-.701 0-1.202.205-1.403.718a6.774 6.774 0 0 0-.3 2.256v10.974a4.334 4.334 0 0 0 .4 2.154c.2.513.702.718 1.403.718.7 0 1.102-.205 1.302-.718.228-.693.33-1.423.3-2.154v-2.461h4.908v2.051a7.98 7.98 0 0 1-1.502 5.128c-1.002 1.231-2.705 1.847-5.108 1.847-2.404-.103-4.207-.718-5.208-2.052ZM19.33.308h5.71l4.206 23.384h-4.607l-.802-4.923h-3.305l-.801 4.923h-4.708L19.33.308Zm4.107 15.384-1.202-9.128-1.202 9.128h2.404ZM32.751 4.205h-3.405V.308h11.918v3.794H37.86v19.59h-5.108V4.205ZM50.379.308h8.814v2.461h-5.71v7.692h4.608v2.36h-4.607v8.615h5.709v2.359h-8.914V.308h.1ZM61.797.308H64l6.51 15.487V.308h2.604v23.384h-2.003l-6.61-16v16h-2.704V.308ZM76.119.308h8.814v2.461h-5.71v7.692h4.608v2.36h-4.607v8.615h5.709v2.359h-8.814V.308ZM87.537.308h4.607a7.873 7.873 0 0 1 5.108 1.436c1.102.923 1.602 2.564 1.602 4.717 0 2.975-.901 4.821-2.804 5.436l3.205 11.693H96.15l-3.005-10.975h-2.503V23.59h-3.205V.308h.1Zm4.407 10.05a4.302 4.302 0 0 0 2.904-.82c.601-.512.902-1.538.902-3.077a6.772 6.772 0 0 0-.3-2.256 2.583 2.583 0 0 0-1.103-1.23 4.473 4.473 0 0 0-2.203-.411h-1.402v7.692h1.202v.103ZM102.861 21.949a10.566 10.566 0 0 1-1.402-5.95V8.206c-.025-1.486.143-2.97.5-4.41a5.204 5.204 0 0 1 1.903-2.667 6.421 6.421 0 0 1 3.706-.923c2.103 0 3.606.513 4.507 1.641a7.982 7.982 0 0 1 1.402 5.128v.82h-3.004v-.717a15.503 15.503 0 0 0-.201-2.564 2.056 2.056 0 0 0-.801-1.334 3.04 3.04 0 0 0-1.903-.512 2.955 2.955 0 0 0-2.003.615 2.349 2.349 0 0 0-.801 1.641 19.734 19.734 0 0 0-.201 2.77v8.717a9.527 9.527 0 0 0 .601 3.898c.401.82 1.202 1.128 2.404 1.128.475.06.956-.024 1.384-.243a2.45 2.45 0 0 0 1.02-.988 9.635 9.635 0 0 0 .701-4.102V14.46h-2.905v-2.359h5.809v11.59h-2.003l-.3-2.666a4.18 4.18 0 0 1-1.554 2.21 4.016 4.016 0 0 1-2.553.764 4.907 4.907 0 0 1-2.406-.47 5.037 5.037 0 0 1-1.9-1.581ZM119.987 15.487 115.08.41h3.004l3.506 11.282L124.995.41H128l-4.908 15.077v8.205h-3.004v-8.205h-.101Z"/></g></symbol><symbol id="header-logo-text"><g clip-path="url(#a)" fill="#111"><path d="M1.264 17.346A6.855 6.855 0 0 1 0 13.042v-6.38a6.94 6.94 0 0 1 1.185-4.38c.87-1 2.213-1.461 4.189-1.461s3.24.461 4.03 1.306a5.415 5.415 0 0 1 1.186 3.767V7.43H6.718V5.663a3.687 3.687 0 0 0-.238-1.537 1.12 1.12 0 0 0-.456-.472 1.164 1.164 0 0 0-.65-.143c-.553 0-.948.154-1.106.538A4.838 4.838 0 0 0 4.03 5.74v8.224a3.107 3.107 0 0 0 .316 1.614c.158.385.553.538 1.106.538s.87-.153 1.027-.538c.18-.52.26-1.066.238-1.614V12.12h3.872v1.538A5.767 5.767 0 0 1 9.405 17.5c-.79.922-2.134 1.383-4.031 1.383-1.897-.077-3.32-.538-4.11-1.537ZM15.253 1.053h4.504l3.32 17.524H19.44l-.632-3.69h-2.608l-.632 3.69h-3.715l3.399-17.524Zm3.24 11.529-.948-6.84-.949 6.84h1.897ZM25.843 3.973h-2.687v-2.92h9.404v2.844h-2.687v14.68h-4.03V3.973ZM39.752 1.053h6.955v1.844h-4.505v5.765h3.635v1.768h-3.635v6.456h4.505v1.768h-7.034V1.053h.079ZM48.761 1.053H50.5l5.137 11.606V1.053h2.055v17.524h-1.58l-5.217-11.99v11.99h-2.134V1.053ZM60.063 1.053h6.954v1.844h-4.504v5.765h3.635v1.768h-3.635v6.456h4.504v1.768h-6.954V1.053ZM69.072 1.053h3.635a6.455 6.455 0 0 1 4.03 1.076c.87.692 1.265 1.921 1.265 3.536 0 2.228-.71 3.612-2.212 4.073l2.528 8.762h-2.45l-2.37-8.224h-1.976V18.5h-2.529V1.053h.079Zm3.477 7.532a3.526 3.526 0 0 0 2.292-.615c.474-.384.711-1.153.711-2.305a4.838 4.838 0 0 0-.237-1.691 1.973 1.973 0 0 0-.869-.923 3.693 3.693 0 0 0-1.739-.307h-1.106v5.764h.948v.077ZM81.163 17.27a7.602 7.602 0 0 1-1.106-4.458V6.971c-.02-1.114.114-2.225.395-3.305a3.913 3.913 0 0 1 1.502-1.999 5.277 5.277 0 0 1 2.924-.691c1.66 0 2.845.384 3.556 1.23a5.763 5.763 0 0 1 1.107 3.843v.614H87.17v-.538c.003-.643-.05-1.286-.158-1.921a1.532 1.532 0 0 0-.633-1 2.495 2.495 0 0 0-1.501-.384 2.418 2.418 0 0 0-1.58.462c-.187.152-.338.34-.447.551a1.7 1.7 0 0 0-.186.678c-.104.687-.157 1.381-.158 2.076v6.533a6.807 6.807 0 0 0 .474 2.92c.316.615.949.846 1.897.846a1.96 1.96 0 0 0 1.092-.182c.337-.164.617-.422.805-.74a6.898 6.898 0 0 0 .553-3.075v-1.23h-2.292V9.892h4.584v8.685h-1.58l-.238-1.999a3.141 3.141 0 0 1-1.226 1.657 3.29 3.29 0 0 1-2.014.573 4.049 4.049 0 0 1-1.899-.352 3.932 3.932 0 0 1-1.5-1.186ZM94.678 12.43l-3.873-11.3h2.371l2.766 8.455 2.687-8.454H101l-3.873 11.298v6.15h-2.37v-6.15h-.08Z"/></g></symbol><symbol id="logo-desktop"><path d="M59.883 23.806A25.432 25.432 0 0 0 51.83 13.43a25.725 25.725 0 0 0-12.193-5.02 25.803 25.803 0 0 0-13.093 1.671 25.59 25.59 0 0 0-10.515 7.916 25.296 25.296 0 0 0-5.144 12.06 25.212 25.212 0 0 0 1.595 12.997 25.423 25.423 0 0 0 7.909 10.484 25.719 25.719 0 0 0 12.122 5.184 113.04 113.04 0 0 1-1.69-6.794 32.41 32.41 0 0 0 4.76 2.529s.12 2.142.28 4.533c1.789.03 3.575-.126 5.33-.466a2.104 2.104 0 0 1 0-.754c.29-1.855 1.09-5.198 1.25-7.35a15.114 15.114 0 0 0 2.9-3.68l-.06.436c-.55 4.226-1.7 8.74-2.4 9.989a5.536 5.536 0 0 1-.83 1.14 25.73 25.73 0 0 0 9.941-4.727 25.48 25.48 0 0 0 7.021-8.43 25.252 25.252 0 0 0 .87-21.341Zm-1.47 3.76c-.44.426-1.35.714-1.5-.576a34.09 34.09 0 0 1-.19-2.192s-1.93-3.402-2.65-3.442c-.72-.04-5.831 3.442-7.181 4.96-1.17 1.28-1.4 1.19-1.4 3.442 0 1.696.22 8.104.1 13.004l-8.15 2.153c-2.562.729-5.168 1.299-7.801 1.706l-1-5.783h-.14l-2.57-13.064s-3.81-1.428-5.21-1.815a3.788 3.788 0 0 0-4 .625 5.032 5.032 0 0 0-1.285 1.722 4.995 4.995 0 0 0-.446 2.097c.212.46.373.943.48 1.438.05.476-1.2.426-2 .426s-.92-1.428-.29-3.104c.492-1.29 1.1-2.531 1.82-3.71a11.776 11.776 0 0 1 2.07-2.867s.14-.337 1.25-.238c1.11.1 7.28.427 7.28.427l.05-2.252a143.93 143.93 0 0 1 20.242-1.33v1.816a22.671 22.671 0 0 1 8.14-1.984.916.916 0 0 1 .77.387c.34.427 2.41 2.976 2.65 3.343a27.73 27.73 0 0 1 1.83 2.976 6.167 6.167 0 0 1-.87 1.825v.01Z" fill="#FDC305"/><path d="M56.463 21.495c.47.595.88 1.121 1 1.28a27.74 27.74 0 0 1 1.83 2.976c-.19.63-.48 1.226-.86 1.765-.44.427-1.35.714-1.5-.575-.15-1.29-.21-2.143-.21-2.143s-1.93-3.402-2.65-3.442c-.72-.04-5.83 3.442-7.18 4.96-1.17 1.28-1.4 1.19-1.4 3.442 0 1.488.17 6.596.13 11.14 1.81.198 4.47.694 5.27 1.864 0 0-.29-7.122 7.81-3.392 0 0 .28-9.711 11.46-7.221a43.671 43.671 0 0 0-13.7-10.654ZM45.932 19.194a89.015 89.015 0 0 0-1.4-16.397s-.15-1.29-.87-.238a14.057 14.057 0 0 0-1.2 3.968 71.46 71.46 0 0 0-12.82.337c-.82-2.728-2.22-3.968-2.89-3.64-.67.327-.75 3.253-.75 3.253l-.33 14.046a143.942 143.942 0 0 1 20.26-1.33Z" fill="#F06351"/><path d="M45.352 46.74c.13-1.062.2-2.47.24-4.028l-8.15 2.153a64.434 64.434 0 0 1-7.8 1.756l1.11 4.96c0 .108 0 .218.07.327a32.398 32.398 0 0 0 4.76 2.53 42.49 42.49 0 0 0 6.88-4.098v.06a15.115 15.115 0 0 0 2.89-3.66Z" fill="#E55645"/><path d="M32.002 16.09c-.05-.1 1 .674 1.41.912.41.238.61.416.61.585 0 .169-.26.337-.62.337s-.92-.119-1-.258c-.08-.139.6 0 .94 0h.29a8.052 8.052 0 0 1-1.63-1.577ZM39.502 16.198s-1 1.27-1.09 1.33c-.09.059-.17.337.19.287a8.146 8.146 0 0 0 1.22-.278c.11-.06.07-.198-.12-.178-.19.02-.68.05-1 .109l.85-1.26s.03-.119-.05-.01ZM36.362 22.259a2.293 2.293 0 0 0 1.09-.992c.28-.655 0-.903-.44-.992-.606-.11-1.23.01-1.75.337-.39.367-.34.724 0 .992a5.17 5.17 0 0 0 1.1.655Z"/><path d="M36.002 23.509c-.115.225-.271.427-.46.595-.285.227-.635.36-1 .377a2.193 2.193 0 0 1-1.54-.437 1.995 1.995 0 0 1-.53-.446 1.002 1.002 0 0 0-.36-.248s.75 4.077 2.57 4.731c1.82.655 2.16-.753 2.21-1.13a5.55 5.55 0 0 0-.82-3.214c0-.298-.02-.1-.07-.228Z" fill="#F06351"/><path d="M34.301 24.64a3.518 3.518 0 0 1-2.35-1.419.148.148 0 0 1 0-.198.14.14 0 0 1 .155-.031.14.14 0 0 1 .045.03 3.209 3.209 0 0 0 2.11 1.3 2.121 2.121 0 0 0 1.64-.992l.14-.188.1.218s.38.754 1 .794c.62.04 1.06-.417 1.63-1.28a.144.144 0 0 1 .2-.04.143.143 0 0 1 .04.199c-.666.972-1.296 1.438-1.89 1.398a1.557 1.557 0 0 1-1.12-.724 2.254 2.254 0 0 1-1.7.933Z"/><path d="M36.262 37.99c2.07 0 3.75-1.665 3.75-3.719s-1.68-3.72-3.75-3.72c-2.072 0-3.75 1.666-3.75 3.72 0 2.054 1.678 3.72 3.75 3.72Z" fill="#FDC305"/><path d="m41.232 31.246-3.13 1.3 1.15-5.585-7.5 9.68 3.13-1.298-1.15 5.594 7.5-9.691Zm-7.39 3.799 4.16-5.366-.81 3.967 2-.813-4.19 5.376.81-3.968-1.97.804ZM32.441 33.587c.62 0 1.12-.498 1.12-1.111 0-.614-.5-1.111-1.12-1.111-.618 0-1.12.497-1.12 1.11 0 .614.502 1.112 1.12 1.112ZM38.962 37.614c.436 0 .79-.35.79-.784a.787.787 0 0 0-.79-.783c-.436 0-.79.35-.79.783 0 .433.354.784.79.784ZM39.922 35.462c.193 0 .35-.156.35-.348a.349.349 0 0 0-.35-.347.349.349 0 0 0-.35.347c0 .192.157.348.35.348Z" fill="#111"/><path d="M45.882 20.99a57.219 57.219 0 0 0-5.09 5.167 31.79 31.79 0 0 1-5.31 4.86c-.22-.525-1.63-1.507-1.63-1.507s-3.14-2.133-5.2-3.81a31.78 31.78 0 0 1-3.14-2.975l-2-.109a22.62 22.62 0 0 0 12 8.769c.86-.14 3.28-1.855 5.09-3.254a57.44 57.44 0 0 0 6-5.862 6.314 6.314 0 0 0 1.14-1.984c-1.14.377-1.86.704-1.86.704Z" fill="#F06351"/><path d="m65.223 3.472-8.46 9.364-1.22-1.974L63.693 0l1.53 3.472ZM62.653 17.12l5.54-4.076-.78-3.71-5.4 4.771.64 3.016ZM59.923 48.972l6.13 3.154 3.01-2.321-6.69-2.728-2.45 1.895ZM1.95 5.922l3.07-3.333 9.29 8.927-1.22 2.262L1.95 5.922ZM7.38 16.149l-4.7-3.105-2.4 3.839 5.15 2.38 1.95-3.114ZM13.91 52.126l-4.55 3.323L12.16 59l4.02-3.988-2.27-2.886Z" fill="#FDC305"/><path d="M25.931 27.774s-3.81-1.428-5.21-1.815a3.788 3.788 0 0 0-4 .625 5.032 5.032 0 0 0-1.285 1.722 4.994 4.994 0 0 0-.445 2.097c.211.46.372.943.48 1.438.05.476-1.2.426-2 .426s-.92-1.428-.29-3.104c.491-1.29 1.1-2.531 1.82-3.71C9.55 28.27 0 34.777 0 34.777a46.196 46.196 0 0 1 8.19.238c5.25.526 5 4.632 5 4.632a38.924 38.924 0 0 1 5.63-1.1c2.121-.14 2.271 2.102 2.271 2.102l.53 3.83a18.248 18.248 0 0 1 2.65-2.342 6.095 6.095 0 0 1 4.38-1.29l-2.72-13.073Z" fill="#F06351"/></symbol><symbol id="logo-mobile"><g clip-path="url(#a)"><path d="M6.07 20.72v-2.26a143.265 143.265 0 0 1 20.17-1.33c0 .6 0 1.21-.06 1.82a25.518 25.518 0 0 1 6-1.82A16.67 16.67 0 0 0 .19 20.39l5.88.33ZM27.24 24.23c-1.16 1.28-1.39 1.2-1.39 3.45v9.18A16.64 16.64 0 0 0 33.32 23a17.302 17.302 0 0 0-.32-3.1 33.109 33.109 0 0 0-5.76 4.33ZM6.36 25.72s-3.79-1.44-5.19-1.83A8.541 8.541 0 0 0 0 23.61a16.65 16.65 0 0 0 8.68 14L6.36 25.72Z" fill="#FDC305"/><path d="M26.29 17.12A89.799 89.799 0 0 0 24.89.65S24.75-.64 24 .41a14.22 14.22 0 0 0-1.2 3.94 70.34 70.34 0 0 0-12.77.34C9.24 2 7.85.75 7.18 1c-.67.25-.72 3.31-.72 3.31l-.33 14.1a143.211 143.211 0 0 1 20.16-1.29Z" fill="#F06351"/><path d="M12.41 14c0-.09 1 .68 1.41.92.41.24.61.42.61.59 0 .17-.27.34-.63.34s-.91-.12-1-.27h1.23A8.34 8.34 0 0 1 12.41 14ZM19.89 14.11l-1.09 1.33c0 .06-.17.35.18.3a7.351 7.351 0 0 0 1.22-.29c.11 0 .07-.19-.11-.17-.18.02-.69.05-1 .11l.84-1.26s.07-.13-.04-.02ZM16.75 20.2a2.3 2.3 0 0 0 1.09-1c.28-.65 0-.91-.44-1a2.43 2.43 0 0 0-1.74.34c-.39.36-.34.72-.05 1a5.34 5.34 0 0 0 1.14.66Z"/><path d="M16.35 21.45a1.92 1.92 0 0 1-.46.6 1.73 1.73 0 0 1-1 .38 2.15 2.15 0 0 1-1.47-.43 2.3 2.3 0 0 1-.53-.44c-.1-.11-.223-.2-.36-.26 0 0 .75 4.1 2.57 4.75 1.82.65 2.14-.75 2.2-1.13a5.61 5.61 0 0 0-.82-3.23c-.02-.31-.03-.11-.13-.24Z" fill="#F06351"/><path d="M14.71 22.59a3.44 3.44 0 0 1-2.361-1.466.14.14 0 0 1 .031-.154.14.14 0 0 1 .2 0 3.26 3.26 0 0 0 2.11 1.3 2.09 2.09 0 0 0 1.63-1l.14-.19.1.21s.37.76 1 .8c.63.04 1.05-.41 1.61-1.28a.14.14 0 0 1 .2 0 .15.15 0 0 1 .05.2c-.64 1-1.27 1.44-1.88 1.4a1.549 1.549 0 0 1-1.12-.76 2.26 2.26 0 0 1-1.71.94Z"/><path d="M26.24 18.92a58.634 58.634 0 0 0-5.07 5.19A31.633 31.633 0 0 1 15.88 29c-.22-.53-1.62-1.51-1.62-1.51s-3.13-2.14-5.18-3.82a34.139 34.139 0 0 1-3.13-3l-2-.11a22.57 22.57 0 0 0 12 8.8c.86-.14 3.27-1.86 5.07-3.26a58.13 58.13 0 0 0 5.94-5.89 6.15 6.15 0 0 0 1.14-2c-1.1.39-1.86.71-1.86.71Z" fill="#F06351"/></g></symbol><symbol id="logo-tablet"><path d="M51.582 19.854a22.231 22.231 0 0 0-6.936-9.09 21.96 21.96 0 0 0-10.503-4.396A21.887 21.887 0 0 0 22.865 7.83a22.083 22.083 0 0 0-9.058 6.934 22.354 22.354 0 0 0-4.43 10.564 22.432 22.432 0 0 0 1.373 11.386 22.238 22.238 0 0 0 6.813 9.184 21.965 21.965 0 0 0 10.442 4.54c-.5-1.815-1.008-3.822-1.456-5.951a27.756 27.756 0 0 0 4.1 2.215s.104 1.877.241 3.971c1.54.027 3.08-.11 4.592-.408a1.874 1.874 0 0 1 0-.66c.25-1.625.939-4.553 1.077-6.439a13.212 13.212 0 0 0 2.498-3.224l-.052.383c-.474 3.701-1.464 7.655-2.067 8.75a4.845 4.845 0 0 1-.715.999 22.006 22.006 0 0 0 8.563-4.141 22.237 22.237 0 0 0 6.047-7.386 22.45 22.45 0 0 0 .749-18.694Zm-1.266 3.293c-.38.374-1.163.626-1.293-.504-.129-1.13-.163-1.92-.163-1.92s-1.663-2.98-2.283-3.015c-.62-.035-5.022 3.015-6.185 4.344-1.008 1.121-1.206 1.043-1.206 3.015 0 1.486.19 7.1.086 11.392l-7.02 1.886a54.724 54.724 0 0 1-6.72 1.494l-.861-5.066h-.12L22.335 23.33s-3.282-1.252-4.488-1.59a3.213 3.213 0 0 0-3.445.547c-.472.417-.85.931-1.107 1.509a4.437 4.437 0 0 0-.384 1.836c.182.404.321.826.414 1.26.043.417-1.034.374-1.723.374-.69 0-.793-1.251-.25-2.72.424-1.129.948-2.217 1.568-3.25a10.312 10.312 0 0 1 1.783-2.51s.12-.296 1.077-.21c.956.088 6.271.374 6.271.374l.043-1.972a121.95 121.95 0 0 1 17.436-1.165v1.59a19.265 19.265 0 0 1 7.011-1.737.778.778 0 0 1 .664.339c.293.373 2.076 2.607 2.283 2.928.579.835 1.105 1.705 1.576 2.607a5.44 5.44 0 0 1-.75 1.599v.008Z" fill="#FDC305"/><path d="M48.636 17.83c.405.52.758.981.862 1.12.579.835 1.105 1.706 1.576 2.607a5.444 5.444 0 0 1-.74 1.547c-.38.373-1.164.625-1.293-.504-.13-1.13-.18-1.877-.18-1.877s-1.663-2.98-2.283-3.015c-.62-.035-5.023 3.015-6.186 4.344-1.008 1.121-1.206 1.043-1.206 3.015 0 1.304.147 5.779.112 9.758 1.56.174 3.851.609 4.54 1.634 0 0-.25-6.239 6.728-2.972 0 0 .241-8.506 9.872-6.325a37.712 37.712 0 0 0-11.802-9.333ZM39.565 15.813A79.266 79.266 0 0 0 38.36 1.45s-.129-1.13-.749-.208a12.474 12.474 0 0 0-1.034 3.475 60.536 60.536 0 0 0-11.043.296c-.707-2.39-1.913-3.476-2.49-3.189-.577.287-.646 2.85-.646 2.85l-.284 12.304a121.956 121.956 0 0 1 17.452-1.165Z" fill="#F06351"/><path d="M39.065 39.943c.112-.93.172-2.163.207-3.527l-7.02 1.885a54.724 54.724 0 0 1-6.72 1.538l.957 4.345c0 .095 0 .19.06.286a27.75 27.75 0 0 0 4.1 2.216 36.478 36.478 0 0 0 5.927-3.589v.053a13.21 13.21 0 0 0 2.49-3.207Z" fill="#E55645"/><path d="M27.566 13.094c-.043-.087.861.59 1.214.8.353.208.526.364.526.512 0 .148-.224.295-.534.295-.31 0-.793-.104-.862-.226-.069-.121.517 0 .81 0h.25a6.987 6.987 0 0 1-1.404-1.381ZM34.026 13.19s-.861 1.112-.939 1.164c-.077.052-.146.295.164.252a6.911 6.911 0 0 0 1.051-.244c.095-.052.06-.173-.103-.156-.164.017-.586.043-.862.096l.732-1.104s.026-.104-.043-.009ZM31.322 18.498c.399-.177.729-.482.938-.868.242-.574 0-.791-.379-.87a2.095 2.095 0 0 0-1.507.296c-.336.322-.293.634 0 .869.29.23.61.423.948.573Z"/><path d="M31.011 19.593a1.78 1.78 0 0 1-.396.522c-.245.199-.547.314-.861.33a1.866 1.866 0 0 1-1.327-.383 1.724 1.724 0 0 1-.456-.39.862.862 0 0 0-.31-.218s.645 3.572 2.213 4.145c1.568.573 1.86-.66 1.904-.99a4.925 4.925 0 0 0-.706-2.816c0-.26-.018-.087-.06-.2Z" fill="#F06351"/><path d="M29.547 22.584c-.403-.131-.79-.447-1.138-.927-.348-.48-.65-1.115-.886-1.866a.552.552 0 0 1-.033-.196.55.55 0 0 1 .033-.195.187.187 0 0 1 .04-.06.068.068 0 0 1 .046-.022c.016 0 .032.007.046.021a.185.185 0 0 1 .04.06c.213.679.483 1.254.796 1.694.311.439.659.733 1.021.866.287-.05.565-.252.81-.591.246-.34.453-.807.603-1.363l.12-.37.087.429s.327 1.485.861 1.563c.534.078.913-.82 1.404-2.52.019-.062.047-.105.08-.12.032-.015.065 0 .093.042a.402.402 0 0 1 .053.179.59.59 0 0 1-.019.211c-.574 1.915-1.117 2.833-1.628 2.755-.197-.06-.387-.219-.554-.465a3.23 3.23 0 0 1-.41-.961c-.17.533-.388.975-.642 1.293-.253.317-.534.503-.823.543Z"/><path d="M31.235 34.28c1.784 0 3.23-1.907 3.23-4.259 0-2.352-1.446-4.258-3.23-4.258s-3.23 1.906-3.23 4.258c0 2.352 1.446 4.258 3.23 4.258Z" fill="#FDC305"/><path d="m35.516 26.984-2.696 1.324.99-5.69-6.46 9.865 2.697-1.324-.991 5.701 6.46-9.876Zm-6.365 3.872 3.583-5.47-.698 4.044 1.723-.828-3.61 5.478.699-4.043-1.697.819ZM27.945 30.422c.533 0 .965-.884.965-1.974 0-1.09-.432-1.973-.965-1.973-.533 0-.965.884-.965 1.973 0 1.09.432 1.974.965 1.974ZM33.561 33.95c.376 0 .68-.756.68-1.687s-.304-1.687-.68-1.687c-.376 0-.68.755-.68 1.687 0 .931.304 1.686.68 1.686Z" fill="#111"/><path d="M34.388 32.064c.167 0 .302-.584.302-1.304 0-.72-.135-1.305-.302-1.305-.166 0-.301.584-.301 1.305 0 .72.135 1.304.301 1.304Z" fill="#111"/><path d="M39.522 17.513a56.551 56.551 0 0 0-4.384 5.458 30.435 30.435 0 0 1-4.574 5.134c-.19-.555-1.405-1.593-1.405-1.593s-2.704-2.252-4.48-4.023a30.774 30.774 0 0 1-2.704-3.142l-1.723-.116c2.487 4.418 6.13 7.683 10.337 9.261.741-.146 2.826-1.959 4.385-3.436a56.097 56.097 0 0 0 5.169-6.191c.429-.62.761-1.33.982-2.096-.982.399-1.603.744-1.603.744ZM22.337 23.574s-3.282-1.402-4.488-1.781a2.903 2.903 0 0 0-1.802-.262c-.61.108-1.181.412-1.644.875a4.942 4.942 0 0 0-1.107 1.69 5.486 5.486 0 0 0-.383 2.057c.182.452.32.925.413 1.41.043.468-1.033.42-1.723.42-.689 0-.792-1.402-.25-3.047a23.534 23.534 0 0 1 1.568-3.64C8.227 24.06 0 30.444 0 30.444a34.973 34.973 0 0 1 7.055.234c4.523.516 4.307 4.545 4.307 4.545a29.933 29.933 0 0 1 4.85-1.08c1.826-.137 1.956 2.063 1.956 2.063l.456 3.756a16.583 16.583 0 0 1 2.283-2.297c1.063-.961 2.417-1.415 3.773-1.265l-2.343-12.826Z" fill="#F06351"/></symbol><symbol id="telegramm-logo"><path fill-rule="evenodd" clip-rule="evenodd" d="M19.46.153c.18.15.265.382.227.611l-2.626 15.757a.657.657 0 0 1-1.012.439l-7.878-5.253a.656.656 0 0 1-.149-.956l2.611-3.263-4.36 2.906a.657.657 0 0 1-.658.041L.363 7.81a.657.657 0 0 1 .073-1.205L18.819.038a.657.657 0 0 1 .642.115ZM2.327 7.323 5.862 9.09l7.561-5.04a.656.656 0 0 1 .877.956l-4.805 6.006 6.438 4.292L18.208 1.65 2.326 7.323Z"/></symbol><symbol id="vk-logo"><path d="M0 2.339C0 1.484.515 1.023 1.545.956l3.97.025a.52.52 0 0 1 .533.377c.409 1.257.866 2.343 1.372 3.257.506.913 1.168 1.965 1.985 3.156.071.15.187.226.346.226.125 0 .222-.059.293-.176l.08-.277.027-4.35c0-.302-.075-.503-.226-.604-.151-.1-.431-.176-.84-.226-.32-.05-.48-.235-.48-.553 0-.067.01-.118.027-.151C9.005.57 10.072.025 11.83.025L13.322 0c.675 0 1.234.16 1.678.478.444.318.666.821.666 1.509v5.708c.125.084.24.126.347.126.266 0 .497-.15.692-.453 1.954-2.582 3.011-4.308 3.17-5.18 0-.017.019-.059.054-.126.125-.251.329-.47.613-.654.284-.184.533-.31.746-.377a.554.554 0 0 1 .24-.05h4.13l.266.025c.355 0 .63.16.826.478.07.1.12.21.146.327.027.117.045.234.054.352.009.117.013.184.013.2v.177c-.124.687-.44 1.42-.946 2.2-.506.78-1.15 1.622-1.931 2.528-.782.905-1.27 1.5-1.466 1.785-.16.201-.24.386-.24.554 0 .134.071.285.213.452l3.89 4.627c.213.269.32.562.32.88 0 .386-.16.705-.48.956-.32.252-.701.394-1.145.428l-.453.025h-4.05a.855.855 0 0 0-.106.012.862.862 0 0 1-.107.013c-.39 0-.755-.16-1.092-.478-.125-.134-.96-1.123-2.505-2.967a1.387 1.387 0 0 0-.373-.327c-.07.268-.164.654-.28 1.157-.115.503-.2.863-.253 1.081l-.08.428c-.177.586-.55.938-1.119 1.056l-.373.025h-2.61c-1.475 0-2.945-.637-4.41-1.911-1.466-1.275-2.784-2.922-3.957-4.942C2.238 8.102 1.146 5.75.133 3.068A1.916 1.916 0 0 1 0 2.338Zm16.013 6.513c-.373 0-.71-.096-1.013-.29-.302-.192-.453-.456-.453-.791V1.987c0-.336-.089-.575-.266-.717-.178-.143-.489-.214-.933-.214l-1.518.05c-.764 0-1.341.126-1.732.378.781.352 1.172.922 1.172 1.71V7.62a1.5 1.5 0 0 1-.533 1.043 1.59 1.59 0 0 1-1.066.415c-.532 0-.94-.243-1.225-.729C7.06 6.371 6.03 4.493 5.356 2.716l-.24-.654-3.544-.025c-.231 0-.36.013-.386.038-.027.025-.04.096-.04.213 0 .151.017.31.053.478l.56 1.409c1.491 3.638 3.112 6.505 4.862 8.6 1.75 2.096 3.468 3.144 5.155 3.144h2.665c.106 0 .186-.03.24-.088.053-.06.097-.172.133-.34l.053-.251.506-2.213c.142-.302.267-.503.373-.604a.975.975 0 0 1 .693-.277c.426 0 .861.243 1.305.73l2.265 2.716c.142.218.293.327.453.327h4.396c.533 0 .8-.126.8-.378a.466.466 0 0 0-.08-.251l-3.864-4.552c-.302-.352-.453-.73-.453-1.131 0-.403.142-.788.427-1.157.23-.336.679-.893 1.345-1.673a37.63 37.63 0 0 0 1.745-2.188c.498-.679.826-1.295.986-1.848l.08-.327a.371.371 0 0 1-.027-.163.574.574 0 0 0-.026-.189h-4.183c-.267.1-.48.252-.64.453l-.16.478c-.444 1.156-1.607 2.942-3.49 5.356a1.892 1.892 0 0 1-1.305.503Z"/></symbol><symbol id="youtube-logo"><path d="m15.85 8.793-5.236-3.491a.655.655 0 0 0-1.014.545v6.982a.655.655 0 0 0 1.014.546l5.237-3.491a.654.654 0 0 0 0-1.091Zm-4.94 2.814V7.07l3.403 2.27-3.404 2.268Zm12.48-8.563a2.4 2.4 0 0 0-1.452-1.637C18.218-.022 12.251 0 12 0c-.25 0-6.218-.022-9.938 1.407A2.4 2.4 0 0 0 .61 3.044C.327 4.113 0 6.076 0 9.338c0 3.262.327 5.226.61 6.295a2.4 2.4 0 0 0 1.452 1.636c3.72 1.43 9.687 1.407 9.938 1.407h.076c.753 0 6.317-.043 9.862-1.407a2.4 2.4 0 0 0 1.451-1.636c.284-1.07.611-3.033.611-6.295s-.327-5.225-.61-6.294Zm-1.266 12.261a1.09 1.09 0 0 1-.655.742c-3.49 1.342-9.404 1.32-9.469 1.32-.066 0-5.978.022-9.47-1.32a1.09 1.09 0 0 1-.654-.742c-.261-1.003-.567-2.847-.567-5.967 0-3.12.306-4.963.567-5.967a1.09 1.09 0 0 1 .655-.742C6.02 1.287 11.934 1.31 12 1.31c.066 0 5.978-.022 9.47 1.32a1.092 1.092 0 0 1 .654.742c.262 1.004.567 2.847.567 5.967 0 3.12-.305 4.964-.567 5.968Z"/></symbol></svg>