<svg width="61" height="51" viewBox="0 0 61 51" fill="none" xmlns="http://www.w3.org/2000/svg">
<path d="M51.5819 19.854C50.0969 16.265 47.7053 13.1312 44.6456 10.7649C41.5858 8.39869 37.9646 6.88262 34.143 6.36781C30.3214 5.85301 26.4328 6.35745 22.8646 7.83086C19.2965 9.30427 16.1735 11.6952 13.8068 14.7654C11.4402 17.8355 9.9125 21.4777 9.37609 25.329C8.83968 29.1802 9.31325 33.106 10.7496 36.7151C12.186 40.3242 14.535 43.4906 17.5625 45.8987C20.59 48.3068 24.1903 49.8726 28.0046 50.4399C27.505 48.6238 26.9967 46.6166 26.5488 44.4878C27.8519 45.3405 29.2235 46.0816 30.6492 46.7035C30.6492 46.7035 30.7526 48.5804 30.8904 50.6745C32.4308 50.7013 33.9698 50.5644 35.4818 50.2661C35.4427 50.0477 35.4427 49.8241 35.4818 49.6057C35.7316 47.9808 36.4208 45.0526 36.5586 43.167C37.552 42.2297 38.3948 41.1421 39.0567 39.9434L39.005 40.3257C38.5312 44.0273 37.5406 47.9808 36.9376 49.0757C36.7424 49.4381 36.5021 49.7739 36.2226 50.0749C39.3408 49.3371 42.2626 47.924 44.7855 45.9336C47.3083 43.9433 49.3718 41.4233 50.8329 38.5484C52.2941 35.6735 53.1179 32.5124 53.2472 29.2843C53.3765 26.0563 52.8083 22.8385 51.5819 19.854ZM50.3156 23.1472C49.9366 23.5208 49.1527 23.7728 49.0235 22.6432C48.8942 21.5136 48.8598 20.7229 48.8598 20.7229C48.8598 20.7229 47.1972 17.7425 46.577 17.7078C45.9568 17.673 41.5549 20.7229 40.3919 22.0524C39.3841 23.1733 39.1859 23.0951 39.1859 25.0675C39.1859 26.5534 39.3755 32.1666 39.2721 36.459L32.2514 38.3446C30.0448 38.9834 27.8007 39.4825 25.5323 39.8391L24.6709 34.7733H24.5503L22.3364 23.3297C22.3364 23.3297 19.0543 22.0784 17.8483 21.7396C17.2821 21.4897 16.6568 21.4084 16.0462 21.5054C15.4356 21.6024 14.8653 21.8736 14.4026 22.287C13.9306 22.7039 13.5531 23.2185 13.296 23.7958C13.0388 24.373 12.908 24.9994 12.9124 25.6323C13.0945 26.0362 13.2331 26.4585 13.3258 26.8922C13.3689 27.3093 12.2921 27.2659 11.603 27.2659C10.9138 27.2659 10.8105 26.0146 11.3532 24.5462C11.7766 23.417 12.3013 22.3292 12.921 21.2964C13.387 20.3738 13.9881 19.5273 14.7041 18.7852C14.7041 18.7852 14.8247 18.4898 15.7809 18.5767C16.7371 18.6636 22.0521 18.9503 22.0521 18.9503L22.0952 16.9779C27.8722 16.1733 33.6987 15.7842 39.5305 15.8135C39.5305 16.3436 39.5305 16.8736 39.5305 17.4037C41.7394 16.3869 44.118 15.7974 46.5425 15.6658C46.6723 15.6625 46.8008 15.6917 46.9166 15.7509C47.0323 15.81 47.1317 15.8973 47.2058 16.0047C47.4987 16.3783 49.2819 18.6115 49.4886 18.933C50.0677 19.7677 50.5942 20.6383 51.065 21.5397C50.9037 22.1104 50.6505 22.6505 50.3156 23.1385V23.1472Z" fill="#FDC305"/>
<path d="M48.6363 17.8294C49.0411 18.3508 49.3943 18.8113 49.4977 18.9503C50.0768 19.7851 50.6033 20.6557 51.0741 21.5571C50.9102 22.1091 50.6601 22.6312 50.3333 23.1038C49.9543 23.4774 49.1704 23.7294 49.0411 22.5998C48.9119 21.4702 48.8602 20.7229 48.8602 20.7229C48.8602 20.7229 47.1977 17.7425 46.5775 17.7078C45.9572 17.673 41.5553 20.7229 40.3924 22.0524C39.3845 23.1733 39.1864 23.0951 39.1864 25.0675C39.1864 26.3709 39.3328 30.8458 39.2984 34.8254C40.8576 34.9992 43.149 35.4337 43.8381 36.459C43.8381 36.459 43.5883 30.2202 50.5659 33.4873C50.5659 33.4873 50.8071 24.9806 60.4378 27.1616C57.1639 23.2844 53.1505 20.1107 48.6363 17.8294Z" fill="#F06351"/>
<path d="M39.5654 15.8135C39.6004 10.9987 39.1967 6.1907 38.3594 1.45035C38.3594 1.45035 38.2302 0.320754 37.61 1.24181C37.0982 2.34291 36.7499 3.51402 36.5762 4.71747C32.8938 4.47914 29.1975 4.57802 25.5327 5.0129C24.8264 2.62338 23.6204 1.53724 23.0432 1.82398C22.466 2.11072 22.3971 4.67403 22.3971 4.67403L22.1129 16.9779C27.8956 16.1725 33.7279 15.7834 39.5654 15.8135Z" fill="#F06351"/>
<path d="M39.0651 39.9434C39.1771 39.0136 39.2374 37.7798 39.2718 36.4156L32.2515 38.3011C30.0459 38.9546 27.8019 39.4682 25.5327 39.8391L26.4889 44.1837C26.4889 44.2793 26.4889 44.3748 26.5492 44.4704C27.8522 45.3231 29.2237 46.0642 30.6494 46.6861C32.7328 45.6815 34.7171 44.4799 36.5757 43.0975V43.1497C37.5646 42.217 38.4044 41.1354 39.0651 39.9434Z" fill="#E55645"/>
<path d="M27.5657 13.0938C27.5226 13.0069 28.4271 13.6847 28.7803 13.8932C29.1334 14.1018 29.3057 14.2582 29.3057 14.4059C29.3057 14.5536 29.0817 14.7013 28.7716 14.7013C28.4615 14.7013 27.9792 14.5971 27.9103 14.4754C27.8413 14.3538 28.4271 14.4754 28.72 14.4754H28.9698C28.4394 14.084 27.9667 13.6189 27.5657 13.0938Z" fill="black"/>
<path d="M34.0264 13.1894C34.0264 13.1894 33.165 14.3016 33.0875 14.3538C33.0099 14.4059 32.941 14.6492 33.2511 14.6057C33.6071 14.5521 33.9585 14.4708 34.302 14.3624C34.3968 14.3103 34.3623 14.1887 34.1986 14.206C34.035 14.2234 33.6129 14.2495 33.3373 14.3016L34.0694 13.1981C34.0694 13.1981 34.0953 13.0938 34.0264 13.1894Z" fill="black"/>
<path d="M31.3215 18.4985C31.7208 18.321 32.0508 18.0156 32.2604 17.6296C32.5016 17.0561 32.2604 16.8389 31.8814 16.7607C31.36 16.6647 30.8218 16.7702 30.374 17.0561C30.038 17.3776 30.0811 17.6904 30.374 17.925C30.6649 18.1552 30.9832 18.3478 31.3215 18.4985Z" fill="black"/>
<path d="M31.0113 19.5933C30.9124 19.7904 30.778 19.9672 30.615 20.1147C30.3697 20.3138 30.0681 20.4294 29.7536 20.4449C29.2794 20.4918 28.8052 20.3552 28.4271 20.0625C28.2535 19.9601 28.0989 19.8278 27.9706 19.6715C27.8844 19.5769 27.7785 19.5027 27.6605 19.4543C27.6605 19.4543 28.3065 23.0255 29.8742 23.599C31.4419 24.1725 31.7348 22.9387 31.7779 22.6085C31.8304 21.6196 31.5841 20.6379 31.0715 19.7932C31.0715 19.5325 31.0543 19.7063 31.0113 19.5933Z" fill="#F06351"/>
<path d="M29.5469 22.5839C29.1438 22.4525 28.7566 22.1372 28.4087 21.6571C28.0608 21.177 27.7594 20.5421 27.5226 19.7906C27.5015 19.7368 27.4897 19.6673 27.4897 19.5952C27.4897 19.5231 27.5015 19.4536 27.5226 19.3999C27.5339 19.3739 27.5473 19.3532 27.5621 19.3391C27.5769 19.3251 27.5927 19.3178 27.6088 19.3178C27.6248 19.3178 27.6407 19.3251 27.6555 19.3391C27.6703 19.3532 27.6837 19.3739 27.6949 19.3999C27.9081 20.078 28.1785 20.6534 28.4905 21.0927C28.8025 21.532 29.1499 21.8264 29.5124 21.9588C29.7993 21.9099 30.0769 21.7074 30.3225 21.3678C30.5681 21.0282 30.7746 20.5613 30.9251 20.0054L31.0457 19.6343L31.1319 20.064C31.1319 20.064 31.4592 21.5486 31.9932 21.6267C32.5273 21.7049 32.9063 20.8063 33.3973 19.1069C33.4156 19.0447 33.444 19.0015 33.4763 18.9869C33.5086 18.9722 33.5422 18.9873 33.5696 19.0287C33.597 19.0702 33.616 19.1346 33.6225 19.2079C33.6289 19.2812 33.6223 19.3572 33.604 19.4194C33.0298 21.3337 32.4871 22.2518 31.976 22.1737C31.7785 22.1143 31.5893 21.9554 31.4224 21.7087C31.2554 21.4619 31.115 21.1336 31.0113 20.7477C30.8427 21.2814 30.6238 21.7232 30.3705 22.0408C30.1172 22.3584 29.8358 22.544 29.5469 22.5839Z" fill="black"/>
<path d="M31.2353 34.2795C33.0192 34.2795 34.4655 32.3729 34.4655 30.0211C34.4655 27.6692 33.0192 25.7626 31.2353 25.7626C29.4513 25.7626 28.0051 27.6692 28.0051 30.0211C28.0051 32.3729 29.4513 34.2795 31.2353 34.2795Z" fill="#FDC305"/>
<path d="M35.5163 26.9841L32.8201 28.3083L33.8107 22.6172L27.3503 32.4832L30.0465 31.1589L29.0559 36.8602L35.5163 26.9841ZM29.1506 30.8557L32.734 25.3869L32.0363 29.4304L33.7591 28.6015L30.1498 34.0803L30.8476 30.0369L29.1506 30.8557Z" fill="#111111"/>
<path d="M27.9447 30.4215C28.4776 30.4215 28.9095 29.5381 28.9095 28.4483C28.9095 27.3586 28.4776 26.4751 27.9447 26.4751C27.4119 26.4751 26.98 27.3586 26.98 28.4483C26.98 29.5381 27.4119 30.4215 27.9447 30.4215Z" fill="#111111"/>
<path d="M33.5612 33.9493C33.9371 33.9493 34.2417 33.1943 34.2417 32.2629C34.2417 31.3315 33.9371 30.5764 33.5612 30.5764C33.1854 30.5764 32.8807 31.3315 32.8807 32.2629C32.8807 33.1943 33.1854 33.9493 33.5612 33.9493Z" fill="#111111"/>
<path d="M34.3882 32.0638C34.5547 32.0638 34.6897 31.4799 34.6897 30.7597C34.6897 30.0394 34.5547 29.4555 34.3882 29.4555C34.2217 29.4555 34.0867 30.0394 34.0867 30.7597C34.0867 31.4799 34.2217 32.0638 34.3882 32.0638Z" fill="#111111"/>
<path d="M39.5224 17.5132C37.9674 19.218 36.5029 21.0411 35.1377 22.9714C33.7778 24.8879 32.2433 26.6101 30.5635 28.1049C30.374 27.5496 29.1594 26.5125 29.1594 26.5125C29.1594 26.5125 26.4545 24.26 24.6799 22.4895C23.7207 21.5178 22.8169 20.4677 21.9751 19.3466L20.2522 19.2313C22.7392 23.6494 26.3826 26.9136 30.5893 28.4925C31.3302 28.3459 33.4148 26.5334 34.974 25.0562C36.8187 23.1484 38.5461 21.079 40.1426 18.8646C40.5717 18.2444 40.9044 17.5344 41.1246 16.7693C40.1426 17.1675 39.5224 17.5132 39.5224 17.5132Z" fill="#F06351"/>
<path d="M22.3368 23.5737C22.3368 23.5737 19.0548 22.1723 17.8488 21.7927C17.2825 21.5129 16.6572 21.4219 16.0467 21.5305C15.4361 21.6391 14.8658 21.9429 14.4031 22.4058C13.931 22.8728 13.5536 23.4492 13.2964 24.0957C13.0393 24.7423 12.9084 25.4438 12.9128 26.1526C13.0949 26.605 13.2335 27.078 13.3263 27.5638C13.3694 28.0309 12.2926 27.9822 11.6034 27.9822C10.9143 27.9822 10.8109 26.5808 11.3536 24.9361C11.777 23.6715 12.3018 22.4532 12.9214 21.2964C8.22664 24.0603 0 30.4444 0 30.4444C2.35316 30.2841 4.71429 30.3623 7.0551 30.678C11.5776 31.1938 11.3622 35.2228 11.3622 35.2228C12.9529 34.7274 14.574 34.3663 16.2121 34.1425C18.0383 34.0063 18.1675 36.2057 18.1675 36.2057L18.6241 39.9622C19.3173 39.1149 20.0819 38.3457 20.9069 37.6655C21.9703 36.7038 23.3243 36.2498 24.6799 36.4003V36.4003L22.3368 23.5737Z" fill="#F06351"/>
</svg>
